<?xml version="1.0" encoding="utf-8" standalone="no"?>
<!DOCTYPE svg PUBLIC "-//W3C//DTD SVG 1.1//EN"
  "http://www.w3.org/Graphics/SVG/1.1/DTD/svg11.dtd">
<svg xmlns:xlink="http://www.w3.org/1999/xlink" width="856.86pt" height="426.74335pt" viewBox="0 0 856.86 426.74335" xmlns="http://www.w3.org/2000/svg" version="1.1">
 <metadata>
  <rdf:RDF xmlns:dc="http://purl.org/dc/elements/1.1/" xmlns:cc="http://creativecommons.org/ns#" xmlns:rdf="http://www.w3.org/1999/02/22-rdf-syntax-ns#">
   <cc:Work>
    <dc:type rdf:resource="http://purl.org/dc/dcmitype/StillImage"/>
    <dc:date>2025-03-15T15:35:15.595523</dc:date>
    <dc:format>image/svg+xml</dc:format>
    <dc:creator>
     <cc:Agent>
      <dc:title>Matplotlib v3.9.2, https://matplotlib.org/</dc:title>
     </cc:Agent>
    </dc:creator>
   </cc:Work>
  </rdf:RDF>
 </metadata>
 <defs>
  <style type="text/css">*{stroke-linejoin: round; stroke-linecap: butt}</style>
 </defs>
 <g id="figure_1">
  <g id="patch_1">
   <path d="M 0 426.74335 
L 856.86 426.74335 
L 856.86 0 
L 0 0 
z
" style="fill: #ffffff"/>
  </g>
  <g id="axes_1">
   <g id="patch_2">
    <path d="M 29.2 404.41835 
L 849.66 404.41835 
L 849.66 55.38935 
L 29.2 55.38935 
z
" style="fill: #ffffff"/>
   </g>
   <g id="patch_3">
    <path d="M 66.493636 927.96185 
L 84.614937 927.96185 
L 84.614937 121.509119 
L 66.493636 121.509119 
z
" clip-path="url(#p2cf2b70fbe)" style="fill: #4155c6"/>
   </g>
   <g id="patch_4">
    <path d="M 175.221439 927.96185 
L 193.34274 927.96185 
L 193.34274 131.769566 
L 175.221439 131.769566 
z
" clip-path="url(#p2cf2b70fbe)" style="fill: #4155c6"/>
   </g>
   <g id="patch_5">
    <path d="M 283.949242 927.96185 
L 302.070542 927.96185 
L 302.070542 181.925543 
L 283.949242 181.925543 
z
" clip-path="url(#p2cf2b70fbe)" style="fill: #4155c6"/>
   </g>
   <g id="patch_6">
    <path d="M 392.677045 927.96185 
L 410.798345 927.96185 
L 410.798345 183.364451 
L 392.677045 183.364451 
z
" clip-path="url(#p2cf2b70fbe)" style="fill: #4155c6"/>
   </g>
   <g id="patch_7">
    <path d="M 501.404848 927.96185 
L 519.526148 927.96185 
L 519.526148 180.146789 
L 501.404848 180.146789 
z
" clip-path="url(#p2cf2b70fbe)" style="fill: #4155c6"/>
   </g>
   <g id="patch_8">
    <path d="M 610.13265 927.96185 
L 628.253951 927.96185 
L 628.253951 205.516929 
L 610.13265 205.516929 
z
" clip-path="url(#p2cf2b70fbe)" style="fill: #4155c6"/>
   </g>
   <g id="patch_9">
    <path d="M 718.860453 927.96185 
L 736.981754 927.96185 
L 736.981754 310.060974 
L 718.860453 310.060974 
z
" clip-path="url(#p2cf2b70fbe)" style="fill: #4155c6"/>
   </g>
   <g id="patch_10">
    <path d="M 85.339789 927.96185 
L 103.461089 927.96185 
L 103.461089 121.509119 
L 85.339789 121.509119 
z
" clip-path="url(#p2cf2b70fbe)" style="fill: #ff7e79"/>
   </g>
   <g id="patch_11">
    <path d="M 194.067592 927.96185 
L 212.188892 927.96185 
L 212.188892 131.769566 
L 194.067592 131.769566 
z
" clip-path="url(#p2cf2b70fbe)" style="fill: #ff7e79"/>
   </g>
   <g id="patch_12">
    <path d="M 302.795394 927.96185 
L 320.916695 927.96185 
L 320.916695 181.925543 
L 302.795394 181.925543 
z
" clip-path="url(#p2cf2b70fbe)" style="fill: #ff7e79"/>
   </g>
   <g id="patch_13">
    <path d="M 411.523197 927.96185 
L 429.644498 927.96185 
L 429.644498 183.364451 
L 411.523197 183.364451 
z
" clip-path="url(#p2cf2b70fbe)" style="fill: #ff7e79"/>
   </g>
   <g id="patch_14">
    <path d="M 520.251 927.96185 
L 538.372301 927.96185 
L 538.372301 180.146789 
L 520.251 180.146789 
z
" clip-path="url(#p2cf2b70fbe)" style="fill: #ff7e79"/>
   </g>
   <g id="patch_15">
    <path d="M 628.978803 927.96185 
L 647.100103 927.96185 
L 647.100103 205.516929 
L 628.978803 205.516929 
z
" clip-path="url(#p2cf2b70fbe)" style="fill: #ff7e79"/>
   </g>
   <g id="patch_16">
    <path d="M 737.706606 927.96185 
L 755.827906 927.96185 
L 755.827906 310.060974 
L 737.706606 310.060974 
z
" clip-path="url(#p2cf2b70fbe)" style="fill: #ff7e79"/>
   </g>
   <g id="patch_17">
    <path d="M 104.185941 927.96185 
L 122.307242 927.96185 
L 122.307242 123.481579 
L 104.185941 123.481579 
z
" clip-path="url(#p2cf2b70fbe)" style="fill: #2ca02c"/>
   </g>
   <g id="patch_18">
    <path d="M 212.913744 927.96185 
L 231.035045 927.96185 
L 231.035045 128.8529 
L 212.913744 128.8529 
z
" clip-path="url(#p2cf2b70fbe)" style="fill: #2ca02c"/>
   </g>
   <g id="patch_19">
    <path d="M 321.641547 927.96185 
L 339.762847 927.96185 
L 339.762847 183.57315 
L 321.641547 183.57315 
z
" clip-path="url(#p2cf2b70fbe)" style="fill: #2ca02c"/>
   </g>
   <g id="patch_20">
    <path d="M 430.36935 927.96185 
L 448.49065 927.96185 
L 448.49065 183.424501 
L 430.36935 183.424501 
z
" clip-path="url(#p2cf2b70fbe)" style="fill: #2ca02c"/>
   </g>
   <g id="patch_21">
    <path d="M 539.097153 927.96185 
L 557.218453 927.96185 
L 557.218453 195.43185 
L 539.097153 195.43185 
z
" clip-path="url(#p2cf2b70fbe)" style="fill: #2ca02c"/>
   </g>
   <g id="patch_22">
    <path d="M 647.824955 927.96185 
L 665.946256 927.96185 
L 665.946256 179.846105 
L 647.824955 179.846105 
z
" clip-path="url(#p2cf2b70fbe)" style="fill: #2ca02c"/>
   </g>
   <g id="patch_23">
    <path d="M 756.552758 927.96185 
L 774.674059 927.96185 
L 774.674059 311.982369 
L 756.552758 311.982369 
z
" clip-path="url(#p2cf2b70fbe)" style="fill: #2ca02c"/>
   </g>
   <g id="patch_24">
    <path d="M 123.032094 927.96185 
L 141.153394 927.96185 
L 141.153394 126.784732 
L 123.032094 126.784732 
z
" clip-path="url(#p2cf2b70fbe)" style="fill: #ffcc53"/>
   </g>
   <g id="patch_25">
    <path d="M 231.759897 927.96185 
L 249.881197 927.96185 
L 249.881197 133.536997 
L 231.759897 133.536997 
z
" clip-path="url(#p2cf2b70fbe)" style="fill: #ffcc53"/>
   </g>
   <g id="patch_26">
    <path d="M 340.487699 927.96185 
L 358.609 927.96185 
L 358.609 186.868363 
L 340.487699 186.868363 
z
" clip-path="url(#p2cf2b70fbe)" style="fill: #ffcc53"/>
   </g>
   <g id="patch_27">
    <path d="M 449.215502 927.96185 
L 467.336803 927.96185 
L 467.336803 187.76754 
L 449.215502 187.76754 
z
" clip-path="url(#p2cf2b70fbe)" style="fill: #ffcc53"/>
   </g>
   <g id="patch_28">
    <path d="M 557.943305 927.96185 
L 576.064606 927.96185 
L 576.064606 180.553438 
L 557.943305 180.553438 
z
" clip-path="url(#p2cf2b70fbe)" style="fill: #ffcc53"/>
   </g>
   <g id="patch_29">
    <path d="M 666.671108 927.96185 
L 684.792408 927.96185 
L 684.792408 209.41318 
L 666.671108 209.41318 
z
" clip-path="url(#p2cf2b70fbe)" style="fill: #ffcc53"/>
   </g>
   <g id="patch_30">
    <path d="M 775.398911 927.96185 
L 793.520211 927.96185 
L 793.520211 319.208224 
L 775.398911 319.208224 
z
" clip-path="url(#p2cf2b70fbe)" style="fill: #ffcc53"/>
   </g>
   <g id="patch_31">
    <path d="M 141.878246 927.96185 
L 159.999547 927.96185 
L 159.999547 127.559848 
L 141.878246 127.559848 
z
" clip-path="url(#p2cf2b70fbe)" style="fill: #8dc0ff"/>
   </g>
   <g id="patch_32">
    <path d="M 250.606049 927.96185 
L 268.72735 927.96185 
L 268.72735 133.036701 
L 250.606049 133.036701 
z
" clip-path="url(#p2cf2b70fbe)" style="fill: #8dc0ff"/>
   </g>
   <g id="patch_33">
    <path d="M 359.333852 927.96185 
L 377.455152 927.96185 
L 377.455152 182.584586 
L 359.333852 182.584586 
z
" clip-path="url(#p2cf2b70fbe)" style="fill: #8dc0ff"/>
   </g>
   <g id="patch_34">
    <path d="M 468.061655 927.96185 
L 486.182955 927.96185 
L 486.182955 183.133552 
L 468.061655 183.133552 
z
" clip-path="url(#p2cf2b70fbe)" style="fill: #8dc0ff"/>
   </g>
   <g id="patch_35">
    <path d="M 576.789458 927.96185 
L 594.910758 927.96185 
L 594.910758 182.245272 
L 576.789458 182.245272 
z
" clip-path="url(#p2cf2b70fbe)" style="fill: #8dc0ff"/>
   </g>
   <g id="patch_36">
    <path d="M 685.51726 927.96185 
L 703.638561 927.96185 
L 703.638561 196.348659 
L 685.51726 196.348659 
z
" clip-path="url(#p2cf2b70fbe)" style="fill: #8dc0ff"/>
   </g>
   <g id="patch_37">
    <path d="M 794.245063 927.96185 
L 812.366364 927.96185 
L 812.366364 310.411932 
L 794.245063 310.411932 
z
" clip-path="url(#p2cf2b70fbe)" style="fill: #8dc0ff"/>
   </g>
   <g id="matplotlib.axis_1">
    <g id="xtick_1">
     <g id="line2d_1">
      <defs>
       <path id="mf3482ec32a" d="M 0 0 
L 0 3.5 
" style="stroke: #000000; stroke-width: 0.8"/>
      </defs>
      <g>
       <use xlink:href="#mf3482ec32a" x="113.246592" y="404.41835" style="stroke: #000000; stroke-width: 0.8"/>
      </g>
     </g>
     <g id="text_1">
      <!-- AUROC -->
      <g transform="translate(100.746592 418.254287) scale(0.1 -0.1)">
       <defs>
        <path id="SimHei-41" d="M 3100 100 
L 2500 100 
L 2150 1425 
L 1050 1425 
L 700 100 
L 100 100 
L 1350 4425 
L 1850 4425 
L 3100 100 
z
M 2025 1900 
L 1625 3425 
L 1575 3425 
L 1175 1900 
L 2025 1900 
z
" transform="scale(0.015625)"/>
        <path id="SimHei-55" d="M 2900 1350 
Q 2900 750 2587 400 
Q 2275 50 1600 50 
Q 925 50 612 400 
Q 300 750 300 1350 
L 300 4375 
L 875 4375 
L 875 1350 
Q 875 925 1075 725 
Q 1275 525 1600 525 
Q 1925 525 2125 725 
Q 2325 925 2325 1350 
L 2325 4375 
L 2900 4375 
L 2900 1350 
z
" transform="scale(0.015625)"/>
        <path id="SimHei-52" d="M 3025 100 
L 2425 100 
L 1525 1950 
L 875 1950 
L 875 100 
L 300 100 
L 300 4375 
L 1550 4375 
Q 2150 4375 2525 4087 
Q 2900 3800 2900 3150 
Q 2900 2650 2650 2375 
Q 2400 2100 2075 2025 
L 3025 100 
z
M 2325 3150 
Q 2325 3500 2112 3700 
Q 1900 3900 1425 3900 
L 875 3900 
L 875 2425 
L 1575 2425 
Q 1875 2425 2100 2587 
Q 2325 2750 2325 3150 
z
" transform="scale(0.015625)"/>
        <path id="SimHei-4f" d="M 2975 2250 
Q 2975 1075 2612 562 
Q 2250 50 1600 50 
Q 950 50 575 562 
Q 200 1075 200 2250 
Q 200 3425 575 3925 
Q 950 4425 1600 4425 
Q 2250 4425 2612 3925 
Q 2975 3425 2975 2250 
z
M 2375 2250 
Q 2375 3300 2150 3625 
Q 1925 3950 1600 3950 
Q 1275 3950 1037 3625 
Q 800 3300 800 2250 
Q 800 1200 1037 862 
Q 1275 525 1600 525 
Q 1925 525 2150 862 
Q 2375 1200 2375 2250 
z
" transform="scale(0.015625)"/>
        <path id="SimHei-43" d="M 3000 1800 
Q 2975 850 2600 450 
Q 2225 50 1700 50 
Q 1100 50 675 537 
Q 250 1025 250 2100 
Q 250 3275 662 3850 
Q 1075 4425 1725 4425 
Q 2275 4425 2637 4012 
Q 3000 3600 2975 2850 
L 2425 2850 
Q 2425 3400 2250 3675 
Q 2075 3950 1725 3950 
Q 1325 3950 1087 3537 
Q 850 3125 850 2150 
Q 850 1250 1087 887 
Q 1325 525 1700 525 
Q 1975 525 2200 787 
Q 2425 1050 2425 1800 
L 3000 1800 
z
" transform="scale(0.015625)"/>
       </defs>
       <use xlink:href="#SimHei-41"/>
       <use xlink:href="#SimHei-55" x="50"/>
       <use xlink:href="#SimHei-52" x="100"/>
       <use xlink:href="#SimHei-4f" x="150"/>
       <use xlink:href="#SimHei-43" x="200"/>
      </g>
     </g>
    </g>
    <g id="xtick_2">
     <g id="line2d_2">
      <g>
       <use xlink:href="#mf3482ec32a" x="221.974394" y="404.41835" style="stroke: #000000; stroke-width: 0.8"/>
      </g>
     </g>
     <g id="text_2">
      <!-- AUPR -->
      <g transform="translate(211.974394 418.254287) scale(0.1 -0.1)">
       <defs>
        <path id="SimHei-50" d="M 2975 3075 
Q 2975 2475 2625 2125 
Q 2275 1775 1650 1775 
L 925 1775 
L 925 100 
L 350 100 
L 350 4375 
L 1650 4375 
Q 2275 4375 2625 4025 
Q 2975 3675 2975 3075 
z
M 2400 3075 
Q 2400 3550 2175 3725 
Q 1950 3900 1500 3900 
L 925 3900 
L 925 2250 
L 1500 2250 
Q 1950 2250 2175 2425 
Q 2400 2600 2400 3075 
z
" transform="scale(0.015625)"/>
       </defs>
       <use xlink:href="#SimHei-41"/>
       <use xlink:href="#SimHei-55" x="50"/>
       <use xlink:href="#SimHei-50" x="100"/>
       <use xlink:href="#SimHei-52" x="150"/>
      </g>
     </g>
    </g>
    <g id="xtick_3">
     <g id="line2d_3">
      <g>
       <use xlink:href="#mf3482ec32a" x="330.702197" y="404.41835" style="stroke: #000000; stroke-width: 0.8"/>
      </g>
     </g>
     <g id="text_3">
      <!-- ACC -->
      <g transform="translate(323.202197 418.254287) scale(0.1 -0.1)">
       <use xlink:href="#SimHei-41"/>
       <use xlink:href="#SimHei-43" x="50"/>
       <use xlink:href="#SimHei-43" x="100"/>
      </g>
     </g>
    </g>
    <g id="xtick_4">
     <g id="line2d_4">
      <g>
       <use xlink:href="#mf3482ec32a" x="439.43" y="404.41835" style="stroke: #000000; stroke-width: 0.8"/>
      </g>
     </g>
     <g id="text_4">
      <!-- BACC -->
      <g transform="translate(429.43 418.254287) scale(0.1 -0.1)">
       <defs>
        <path id="SimHei-42" d="M 2975 1375 
Q 2975 650 2575 375 
Q 2175 100 1550 100 
L 300 100 
L 300 4375 
L 1600 4375 
Q 2225 4375 2537 4050 
Q 2850 3725 2850 3275 
Q 2850 2825 2637 2612 
Q 2425 2400 2200 2325 
Q 2500 2250 2737 2012 
Q 2975 1775 2975 1375 
z
M 2275 3275 
Q 2275 3600 2087 3750 
Q 1900 3900 1625 3900 
L 875 3900 
L 875 2575 
L 1600 2575 
Q 1875 2575 2075 2737 
Q 2275 2900 2275 3275 
z
M 2375 1375 
Q 2375 1775 2112 1937 
Q 1850 2100 1525 2100 
L 875 2100 
L 875 575 
L 1450 575 
Q 1900 575 2137 750 
Q 2375 925 2375 1375 
z
" transform="scale(0.015625)"/>
       </defs>
       <use xlink:href="#SimHei-42"/>
       <use xlink:href="#SimHei-41" x="50"/>
       <use xlink:href="#SimHei-43" x="100"/>
       <use xlink:href="#SimHei-43" x="150"/>
      </g>
     </g>
    </g>
    <g id="xtick_5">
     <g id="line2d_5">
      <g>
       <use xlink:href="#mf3482ec32a" x="548.157803" y="404.41835" style="stroke: #000000; stroke-width: 0.8"/>
      </g>
     </g>
     <g id="text_5">
      <!-- PREC -->
      <g transform="translate(538.157803 418.254287) scale(0.1 -0.1)">
       <defs>
        <path id="SimHei-45" d="M 2925 100 
L 375 100 
L 375 4375 
L 2800 4375 
L 2800 3900 
L 950 3900 
L 950 2575 
L 2650 2575 
L 2650 2100 
L 950 2100 
L 950 575 
L 2925 575 
L 2925 100 
z
" transform="scale(0.015625)"/>
       </defs>
       <use xlink:href="#SimHei-50"/>
       <use xlink:href="#SimHei-52" x="50"/>
       <use xlink:href="#SimHei-45" x="100"/>
       <use xlink:href="#SimHei-43" x="150"/>
      </g>
     </g>
    </g>
    <g id="xtick_6">
     <g id="line2d_6">
      <g>
       <use xlink:href="#mf3482ec32a" x="656.885606" y="404.41835" style="stroke: #000000; stroke-width: 0.8"/>
      </g>
     </g>
     <g id="text_6">
      <!-- TPR -->
      <g transform="translate(649.385606 418.254287) scale(0.1 -0.1)">
       <defs>
        <path id="SimHei-54" d="M 2875 3900 
L 1875 3900 
L 1875 100 
L 1300 100 
L 1300 3900 
L 300 3900 
L 300 4375 
L 2875 4375 
L 2875 3900 
z
" transform="scale(0.015625)"/>
       </defs>
       <use xlink:href="#SimHei-54"/>
       <use xlink:href="#SimHei-50" x="50"/>
       <use xlink:href="#SimHei-52" x="100"/>
      </g>
     </g>
    </g>
    <g id="xtick_7">
     <g id="line2d_7">
      <g>
       <use xlink:href="#mf3482ec32a" x="765.613408" y="404.41835" style="stroke: #000000; stroke-width: 0.8"/>
      </g>
     </g>
     <g id="text_7">
      <!-- KAPPA -->
      <g transform="translate(753.113408 418.254287) scale(0.1 -0.1)">
       <defs>
        <path id="SimHei-4b" d="M 3075 100 
L 2425 100 
L 1275 2225 
L 875 1700 
L 875 100 
L 300 100 
L 300 4375 
L 875 4375 
L 875 2525 
L 2300 4375 
L 2975 4375 
L 1650 2700 
L 3075 100 
z
" transform="scale(0.015625)"/>
       </defs>
       <use xlink:href="#SimHei-4b"/>
       <use xlink:href="#SimHei-41" x="50"/>
       <use xlink:href="#SimHei-50" x="100"/>
       <use xlink:href="#SimHei-50" x="150"/>
       <use xlink:href="#SimHei-41" x="200"/>
      </g>
     </g>
    </g>
   </g>
   <g id="matplotlib.axis_2">
    <g id="ytick_1">
     <g id="line2d_8">
      <defs>
       <path id="ma4a7896c4d" d="M 0 0 
L -3.5 0 
" style="stroke: #000000; stroke-width: 0.8"/>
      </defs>
      <g>
       <use xlink:href="#ma4a7896c4d" x="29.2" y="404.41835" style="stroke: #000000; stroke-width: 0.8"/>
      </g>
     </g>
     <g id="text_8">
      <!-- 0.6 -->
      <g transform="translate(7.2 407.836319) scale(0.1 -0.1)">
       <defs>
        <path id="SimHei-30" d="M 2975 2250 
Q 2975 1350 2650 700 
Q 2325 50 1600 50 
Q 875 50 537 700 
Q 200 1350 200 2250 
Q 200 3150 537 3787 
Q 875 4425 1600 4425 
Q 2325 4425 2650 3787 
Q 2975 3150 2975 2250 
z
M 2375 2250 
Q 2375 3050 2187 3500 
Q 2000 3950 1600 3950 
Q 1200 3950 1000 3500 
Q 800 3050 800 2250 
Q 800 1450 1000 987 
Q 1200 525 1600 525 
Q 2000 525 2187 987 
Q 2375 1450 2375 2250 
z
" transform="scale(0.015625)"/>
        <path id="SimHei-2e" d="M 1100 100 
L 525 100 
L 525 650 
L 1100 650 
L 1100 100 
z
" transform="scale(0.015625)"/>
        <path id="SimHei-36" d="M 2850 1550 
Q 2850 850 2550 450 
Q 2250 50 1650 50 
Q 1050 50 700 550 
Q 350 1050 350 2175 
Q 350 3200 712 3812 
Q 1075 4425 1750 4425 
Q 2225 4425 2512 4075 
Q 2800 3725 2800 3300 
L 2225 3300 
Q 2225 3550 2087 3750 
Q 1950 3950 1725 3950 
Q 1350 3950 1150 3562 
Q 950 3175 925 2375 
Q 1100 2700 1300 2825 
Q 1500 2950 1775 2950 
Q 2250 2950 2550 2575 
Q 2850 2200 2850 1550 
z
M 2250 1550 
Q 2250 2000 2100 2250 
Q 1950 2500 1675 2500 
Q 1350 2500 1162 2250 
Q 975 2000 975 1650 
Q 975 1100 1162 800 
Q 1350 500 1675 500 
Q 1900 500 2075 725 
Q 2250 950 2250 1550 
z
" transform="scale(0.015625)"/>
       </defs>
       <use xlink:href="#SimHei-30"/>
       <use xlink:href="#SimHei-2e" x="50"/>
       <use xlink:href="#SimHei-36" x="100"/>
      </g>
     </g>
    </g>
    <g id="ytick_2">
     <g id="line2d_9">
      <g>
       <use xlink:href="#ma4a7896c4d" x="29.2" y="317.1611" style="stroke: #000000; stroke-width: 0.8"/>
      </g>
     </g>
     <g id="text_9">
      <!-- 0.7 -->
      <g transform="translate(7.2 320.579069) scale(0.1 -0.1)">
       <defs>
        <path id="SimHei-37" d="M 2775 3850 
L 1600 100 
L 1025 100 
L 2225 3900 
L 400 3900 
L 400 4375 
L 2775 4375 
L 2775 3850 
z
" transform="scale(0.015625)"/>
       </defs>
       <use xlink:href="#SimHei-30"/>
       <use xlink:href="#SimHei-2e" x="50"/>
       <use xlink:href="#SimHei-37" x="100"/>
      </g>
     </g>
    </g>
    <g id="ytick_3">
     <g id="line2d_10">
      <g>
       <use xlink:href="#ma4a7896c4d" x="29.2" y="229.90385" style="stroke: #000000; stroke-width: 0.8"/>
      </g>
     </g>
     <g id="text_10">
      <!-- 0.8 -->
      <g transform="translate(7.2 233.321819) scale(0.1 -0.1)">
       <defs>
        <path id="SimHei-38" d="M 2875 1325 
Q 2875 700 2525 375 
Q 2175 50 1575 50 
Q 975 50 625 375 
Q 275 700 275 1325 
Q 275 1650 475 1912 
Q 675 2175 1025 2300 
Q 725 2425 562 2650 
Q 400 2875 400 3225 
Q 400 3775 750 4100 
Q 1100 4425 1575 4425 
Q 2050 4425 2400 4100 
Q 2750 3775 2750 3225 
Q 2750 2875 2587 2650 
Q 2425 2425 2125 2300 
Q 2475 2175 2675 1912 
Q 2875 1650 2875 1325 
z
M 2200 3225 
Q 2200 3625 2025 3800 
Q 1850 3975 1575 3975 
Q 1300 3975 1125 3800 
Q 950 3625 950 3225 
Q 950 2825 1137 2662 
Q 1325 2500 1575 2500 
Q 1825 2500 2012 2662 
Q 2200 2825 2200 3225 
z
M 2300 1325 
Q 2300 1675 2112 1875 
Q 1925 2075 1575 2075 
Q 1225 2075 1037 1875 
Q 850 1675 850 1325 
Q 850 925 1050 712 
Q 1250 500 1575 500 
Q 1900 500 2100 712 
Q 2300 925 2300 1325 
z
" transform="scale(0.015625)"/>
       </defs>
       <use xlink:href="#SimHei-30"/>
       <use xlink:href="#SimHei-2e" x="50"/>
       <use xlink:href="#SimHei-38" x="100"/>
      </g>
     </g>
    </g>
    <g id="ytick_4">
     <g id="line2d_11">
      <g>
       <use xlink:href="#ma4a7896c4d" x="29.2" y="142.6466" style="stroke: #000000; stroke-width: 0.8"/>
      </g>
     </g>
     <g id="text_11">
      <!-- 0.9 -->
      <g transform="translate(7.2 146.064569) scale(0.1 -0.1)">
       <defs>
        <path id="SimHei-39" d="M 2825 2300 
Q 2825 1275 2462 662 
Q 2100 50 1425 50 
Q 950 50 662 400 
Q 375 750 375 1175 
L 950 1175 
Q 950 925 1087 725 
Q 1225 525 1450 525 
Q 1825 525 2012 950 
Q 2200 1375 2250 2200 
Q 2125 1925 1900 1775 
Q 1675 1625 1400 1625 
Q 925 1625 625 1975 
Q 325 2325 325 2975 
Q 325 3625 625 4025 
Q 925 4425 1525 4425 
Q 2125 4425 2475 3925 
Q 2825 3425 2825 2300 
z
M 2200 2875 
Q 2200 3425 2012 3700 
Q 1825 3975 1500 3975 
Q 1275 3975 1100 3762 
Q 925 3550 925 2975 
Q 925 2550 1062 2312 
Q 1200 2075 1500 2075 
Q 1825 2075 2012 2300 
Q 2200 2525 2200 2875 
z
" transform="scale(0.015625)"/>
       </defs>
       <use xlink:href="#SimHei-30"/>
       <use xlink:href="#SimHei-2e" x="50"/>
       <use xlink:href="#SimHei-39" x="100"/>
      </g>
     </g>
    </g>
   </g>
   <g id="patch_38">
    <path d="M 29.2 404.41835 
L 29.2 55.38935 
" style="fill: none; stroke: #000000; stroke-width: 0.8; stroke-linejoin: miter; stroke-linecap: square"/>
   </g>
   <g id="patch_39">
    <path d="M 849.66 404.41835 
L 849.66 55.38935 
" style="fill: none; stroke: #000000; stroke-width: 0.8; stroke-linejoin: miter; stroke-linecap: square"/>
   </g>
   <g id="patch_40">
    <path d="M 29.2 404.41835 
L 849.66 404.41835 
" style="fill: none; stroke: #000000; stroke-width: 0.8; stroke-linejoin: miter; stroke-linecap: square"/>
   </g>
   <g id="patch_41">
    <path d="M 29.2 55.38935 
L 849.66 55.38935 
" style="fill: none; stroke: #000000; stroke-width: 0.8; stroke-linejoin: miter; stroke-linecap: square"/>
   </g>
   <g id="text_12">
    <!-- 本次实验所有模型的结果对比 -->
    <g transform="translate(361.43 49.38935) scale(0.12 -0.12)">
     <defs>
      <path id="SimHei-672c" d="M 525 3975 
Q 1000 3950 1375 3950 
L 2950 3950 
L 2950 4400 
Q 2950 4825 2900 5200 
L 3500 5200 
Q 3450 4900 3450 4450 
L 3450 3950 
L 4875 3950 
Q 5275 3950 5875 3975 
L 5875 3475 
Q 5325 3500 4900 3500 
L 3825 3500 
Q 4150 2325 4812 1687 
Q 5475 1050 6125 800 
Q 5850 600 5625 275 
Q 4675 950 4187 1612 
Q 3700 2275 3450 3350 
L 3450 975 
L 3775 975 
Q 4175 975 4600 1000 
L 4600 500 
Q 4175 525 3775 525 
L 3450 525 
Q 3450 -50 3475 -625 
L 2925 -625 
Q 2950 -50 2950 525 
L 2600 525 
Q 2225 525 1850 500 
L 1850 1000 
Q 2225 975 2600 975 
L 2950 975 
L 2950 3350 
Q 2525 2225 2037 1512 
Q 1550 800 775 125 
Q 550 375 250 550 
Q 1050 1050 1600 1800 
Q 2150 2550 2475 3500 
L 1400 3500 
Q 1000 3500 525 3450 
L 525 3975 
z
" transform="scale(0.015625)"/>
      <path id="SimHei-6b21" d="M 525 4300 
Q 725 4425 1000 4550 
Q 1150 4300 1350 3950 
Q 1550 3600 1750 3250 
Q 1475 3125 1250 2975 
Q 1100 3275 937 3625 
Q 775 3975 525 4300 
z
M 1475 2225 
Q 1650 2075 1950 1925 
Q 1800 1700 1512 1150 
Q 1225 600 900 -50 
Q 675 125 400 300 
Q 775 700 1037 1237 
Q 1300 1775 1475 2225 
z
M 3000 5075 
Q 3275 4975 3650 4825 
Q 3500 4725 3387 4450 
Q 3275 4175 3150 3900 
L 5800 3900 
Q 5725 3700 5600 3337 
Q 5475 2975 5325 2450 
Q 5050 2525 4775 2575 
Q 4875 2800 4950 3025 
Q 5025 3250 5100 3500 
L 2975 3500 
Q 2850 3300 2712 3000 
Q 2575 2700 2400 2400 
Q 2225 2550 1950 2650 
Q 2125 2875 2287 3175 
Q 2450 3475 2587 3800 
Q 2725 4125 2825 4450 
Q 2925 4775 3000 5075 
z
M 3500 3050 
Q 3800 3025 4100 2975 
Q 4025 2725 4012 2250 
Q 4000 1775 4212 1375 
Q 4425 975 4725 700 
Q 5025 425 5375 262 
Q 5725 100 6000 25 
Q 5850 -75 5775 -212 
Q 5700 -350 5625 -550 
Q 5075 -250 4750 12 
Q 4425 275 4237 525 
Q 4050 775 3950 1012 
Q 3850 1250 3775 1475 
Q 3650 1100 3512 812 
Q 3375 525 3162 300 
Q 2950 75 2675 -137 
Q 2400 -350 2025 -600 
Q 1850 -325 1600 -150 
Q 2225 75 2600 412 
Q 2975 750 3175 1100 
Q 3375 1450 3437 1787 
Q 3500 2125 3512 2362 
Q 3525 2600 3500 3050 
z
" transform="scale(0.015625)"/>
      <path id="SimHei-5b9e" d="M 2800 5050 
Q 3050 5100 3375 5200 
Q 3500 4925 3650 4450 
L 5775 4450 
Q 5750 4150 5750 3900 
Q 5750 3650 5775 3375 
L 5225 3375 
L 5225 4025 
L 1125 4025 
L 1125 3275 
L 575 3275 
Q 600 3600 600 3875 
Q 600 4150 575 4450 
L 3050 4450 
Q 2975 4700 2800 5050 
z
M 1625 3425 
Q 1825 3575 1975 3800 
Q 2300 3600 3000 3025 
Q 2750 2850 2650 2625 
Q 1975 3250 1625 3425 
z
M 1125 2500 
Q 1325 2675 1450 2925 
Q 1850 2725 2575 2225 
Q 2325 2050 2175 1825 
Q 1600 2325 1125 2500 
z
M 3300 3750 
Q 3625 3675 3925 3650 
Q 3850 3300 3825 2762 
Q 3800 2225 3775 1700 
L 5050 1700 
Q 5500 1700 5975 1725 
L 5975 1250 
Q 5475 1275 5050 1275 
L 3725 1275 
Q 3500 750 3062 362 
Q 2625 -25 2050 -275 
Q 1475 -525 1000 -650 
Q 900 -375 600 -150 
Q 1325 -25 2012 262 
Q 2700 550 3175 1275 
L 1500 1275 
Q 1050 1275 525 1250 
L 525 1725 
Q 1075 1700 1500 1700 
L 3250 1700 
Q 3300 2100 3312 2562 
Q 3325 3025 3300 3750 
z
M 3675 500 
Q 3825 725 3975 900 
Q 4500 625 4975 337 
Q 5450 50 5825 -150 
Q 5600 -375 5425 -600 
Q 5000 -300 4487 12 
Q 3975 325 3675 500 
z
" transform="scale(0.015625)"/>
      <path id="SimHei-9a8c" d="M 400 4675 
Q 775 4650 1150 4650 
L 2325 4650 
Q 2275 4425 2250 4000 
L 2075 2100 
L 2525 2100 
Q 2500 1900 2475 1450 
L 2400 100 
Q 2400 -400 2100 -475 
Q 1800 -550 1275 -625 
Q 1200 -300 1075 -75 
Q 1600 -75 1762 -62 
Q 1925 -50 1975 175 
L 2050 1700 
L 600 1700 
Q 625 2150 637 2700 
Q 650 3250 650 3750 
L 1125 3750 
Q 1075 3475 1050 3050 
Q 1025 2625 1025 2100 
L 1650 2100 
L 1825 4250 
L 1150 4250 
Q 775 4250 400 4225 
L 400 4675 
z
M 250 925 
Q 600 950 962 1000 
Q 1325 1050 1800 1125 
Q 1775 950 1750 700 
Q 1375 650 1137 600 
Q 900 550 425 400 
Q 350 675 250 925 
z
M 3775 5125 
Q 4075 5050 4425 4975 
L 4300 4800 
Q 4700 4050 5125 3712 
Q 5550 3375 6100 3175 
Q 5875 2975 5750 2700 
Q 5425 2875 5100 3150 
L 5100 2750 
Q 4775 2775 4187 2775 
Q 3600 2775 3225 2750 
L 3225 3125 
Q 3075 2925 2800 2625 
Q 2575 2825 2350 2950 
Q 2725 3225 2937 3500 
Q 3150 3775 3312 4062 
Q 3475 4350 3587 4600 
Q 3700 4850 3775 5125 
z
M 4025 4525 
Q 3850 4125 3687 3850 
Q 3525 3575 3250 3175 
L 5075 3175 
Q 4775 3400 4525 3712 
Q 4275 4025 4025 4525 
z
M 2850 2025 
Q 3050 2100 3250 2150 
Q 3350 1800 3462 1362 
Q 3575 925 3675 575 
Q 3450 550 3250 450 
Q 3175 900 3087 1225 
Q 3000 1550 2850 2025 
z
M 3750 2200 
Q 3975 2250 4175 2275 
Q 4225 1950 4275 1637 
Q 4325 1325 4400 825 
Q 4200 775 4000 725 
Q 3925 1275 3875 1550 
Q 3825 1825 3750 2200 
z
M 5025 2275 
Q 5225 2200 5575 2125 
Q 5450 1975 5375 1725 
Q 5300 1475 5137 925 
Q 4975 375 4875 50 
L 5225 50 
Q 5400 50 5750 75 
L 5750 -375 
Q 5450 -350 5225 -350 
L 3325 -350 
Q 2875 -350 2675 -375 
L 2675 75 
Q 2975 50 3350 50 
L 4450 50 
Q 4650 600 4775 1162 
Q 4900 1725 5025 2275 
z
" transform="scale(0.015625)"/>
      <path id="SimHei-6240" d="M 1350 2925 
L 1350 1800 
L 2275 1800 
L 2275 2925 
L 1350 2925 
z
M 2675 4975 
Q 2775 4750 2950 4475 
Q 2675 4475 1350 4275 
L 1350 3325 
L 2750 3325 
Q 2725 2825 2725 2275 
Q 2725 1725 2750 1400 
L 1300 1400 
Q 1275 825 1150 375 
Q 1025 -75 750 -575 
Q 550 -375 300 -325 
Q 700 300 800 1037 
Q 900 1775 900 2687 
Q 900 3600 850 4600 
Q 2250 4750 2675 4975 
z
M 5650 5000 
Q 5775 4700 5900 4475 
Q 5550 4450 5062 4400 
Q 4575 4350 3825 4300 
L 3825 3150 
L 5275 3150 
Q 5650 3150 6025 3175 
L 6025 2725 
Q 5650 2750 5225 2750 
L 5225 375 
Q 5225 -125 5250 -550 
L 4750 -550 
Q 4775 -100 4775 375 
L 4775 2750 
L 3825 2750 
Q 3775 1600 3637 1037 
Q 3500 475 3287 100 
Q 3075 -275 2750 -675 
Q 2575 -475 2300 -375 
Q 2750 25 3000 575 
Q 3250 1125 3312 1800 
Q 3375 2475 3375 3150 
Q 3375 3825 3350 4650 
Q 3725 4650 4462 4725 
Q 5200 4800 5650 5000 
z
" transform="scale(0.015625)"/>
      <path id="SimHei-6709" d="M 2250 2850 
L 2250 2150 
L 4650 2150 
L 4650 2850 
L 2250 2850 
z
M 2250 1750 
L 2250 1125 
L 4650 1125 
L 4650 1750 
L 2250 1750 
z
M 775 1225 
Q 650 1400 350 1625 
Q 850 1950 1375 2562 
Q 1900 3175 2275 3900 
L 1450 3900 
Q 1200 3900 725 3875 
L 725 4350 
Q 1250 4325 1550 4325 
L 2425 4325 
Q 2500 4600 2525 4787 
Q 2550 4975 2575 5175 
Q 2675 5150 2850 5137 
Q 3025 5125 3225 5075 
Q 3125 5025 2950 4325 
L 4850 4325 
Q 5225 4325 5675 4350 
L 5675 3875 
Q 5225 3900 4950 3900 
L 2825 3900 
Q 2675 3575 2500 3250 
L 5175 3250 
Q 5150 2625 5150 2125 
L 5150 100 
Q 5150 -250 4950 -412 
Q 4750 -575 4175 -625 
Q 4150 -350 4000 -25 
Q 4350 -75 4500 -50 
Q 4650 -25 4650 225 
L 4650 725 
L 2250 725 
L 2250 -600 
L 1725 -600 
Q 1750 25 1750 475 
L 1750 2200 
Q 1300 1675 775 1225 
z
" transform="scale(0.015625)"/>
      <path id="SimHei-6a21" d="M 2550 1875 
Q 2325 1750 2175 1625 
Q 2025 1950 1675 2500 
L 1675 275 
Q 1675 -325 1700 -575 
L 1200 -575 
Q 1225 -300 1225 225 
L 1225 2200 
Q 1150 1975 987 1687 
Q 825 1400 625 1025 
Q 475 1250 225 1400 
Q 625 1800 875 2400 
Q 1125 3000 1200 3400 
L 975 3400 
Q 725 3400 425 3375 
L 425 3800 
Q 700 3775 850 3775 
Q 1000 3775 1225 3775 
L 1225 4325 
Q 1225 4750 1200 5125 
L 1700 5125 
Q 1675 4800 1675 4400 
L 1675 3775 
Q 2075 3775 2375 3800 
L 2375 3375 
Q 2050 3400 1675 3400 
L 1675 2550 
Q 1850 2650 2000 2775 
Q 2175 2525 2312 2287 
Q 2450 2050 2550 1875 
z
M 2475 -675 
Q 2350 -425 2125 -250 
Q 2775 -125 3200 112 
Q 3625 350 3775 725 
L 3325 725 
Q 2800 725 2400 700 
L 2400 1100 
Q 2800 1075 3350 1075 
L 3875 1075 
Q 3925 1350 3925 1600 
L 2750 1600 
Q 2775 1950 2775 2587 
Q 2775 3225 2750 3550 
L 3400 3550 
L 3400 4125 
L 3200 4125 
Q 2725 4125 2450 4100 
L 2450 4500 
Q 2725 4475 3175 4475 
L 3400 4475 
Q 3400 4875 3375 5100 
L 3850 5100 
Q 3825 4875 3825 4475 
L 4575 4475 
Q 4575 4875 4550 5100 
L 5025 5100 
Q 5000 4825 5000 4475 
L 5375 4475 
Q 5650 4475 5950 4500 
L 5950 4100 
Q 5650 4125 5375 4125 
L 5000 4125 
L 5000 3550 
L 5675 3550 
Q 5650 3275 5650 2600 
Q 5650 1925 5675 1600 
L 4375 1600 
Q 4350 1325 4325 1075 
L 5200 1075 
Q 5725 1075 6000 1100 
L 6000 700 
Q 5700 725 5200 725 
L 4700 725 
Q 5050 250 5400 75 
Q 5750 -100 6150 -200 
Q 5925 -375 5800 -625 
Q 5225 -400 4837 -37 
Q 4450 325 4300 650 
L 4225 650 
Q 4000 150 3537 -150 
Q 3075 -450 2475 -675 
z
M 3825 4125 
L 3825 3550 
L 4575 3550 
L 4575 4125 
L 3825 4125 
z
M 3200 3200 
L 3200 2750 
L 5250 2750 
L 5250 3200 
L 3200 3200 
z
M 3200 2400 
L 3200 1950 
L 5250 1950 
L 5250 2400 
L 3200 2400 
z
" transform="scale(0.015625)"/>
      <path id="SimHei-578b" d="M 1125 1200 
Q 1550 1175 2050 1175 
L 3025 1175 
Q 3025 1400 3000 1725 
L 3500 1725 
Q 3475 1400 3475 1175 
L 4550 1175 
Q 4975 1175 5350 1200 
L 5350 775 
Q 4975 800 4550 800 
L 3475 800 
L 3475 0 
L 5250 0 
Q 5700 0 6075 25 
L 6075 -400 
Q 5725 -375 5275 -375 
L 1300 -375 
Q 825 -375 450 -400 
L 450 25 
Q 825 0 1300 0 
L 3025 0 
L 3025 800 
L 2050 800 
Q 1550 800 1125 775 
L 1125 1200 
z
M 3000 2625 
Q 3000 2200 3025 1875 
L 2550 1875 
Q 2575 2300 2575 2650 
L 2575 2950 
L 1750 2950 
Q 1650 2350 1362 2012 
Q 1075 1675 725 1425 
Q 550 1625 300 1775 
Q 775 2050 987 2300 
Q 1200 2550 1275 2950 
Q 800 2950 375 2925 
L 375 3350 
Q 825 3325 1325 3325 
Q 1350 3850 1350 4350 
Q 1000 4350 625 4325 
L 625 4750 
Q 1000 4725 1450 4725 
L 2900 4725 
Q 3175 4725 3550 4750 
L 3550 4325 
Q 3225 4350 3000 4350 
L 3000 3325 
Q 3350 3325 3700 3350 
L 3700 2925 
Q 3350 2950 3000 2950 
L 3000 2625 
z
M 1800 4350 
Q 1775 3650 1775 3325 
L 2575 3325 
L 2575 4350 
L 1800 4350 
z
M 4000 4625 
L 4475 4625 
Q 4450 4325 4450 3875 
L 4450 3125 
Q 4450 2775 4475 2400 
L 4000 2400 
Q 4025 2775 4025 3125 
L 4025 3875 
Q 4025 4325 4000 4625 
z
M 5150 5050 
L 5625 5050 
Q 5600 4650 5600 4200 
L 5600 2375 
Q 5625 1950 5462 1775 
Q 5300 1600 4775 1525 
Q 4675 1775 4550 2025 
Q 5050 2000 5112 2100 
Q 5175 2200 5175 2500 
L 5175 4200 
Q 5175 4650 5150 5050 
z
" transform="scale(0.015625)"/>
      <path id="SimHei-7684" d="M 1525 5100 
Q 1850 5025 2200 4925 
Q 2100 4775 2025 4487 
Q 1950 4200 1900 3975 
L 2975 3975 
Q 2950 3525 2950 2900 
L 2950 700 
Q 2950 300 2975 -225 
L 2500 -225 
L 2500 300 
L 1200 300 
L 1200 -275 
L 725 -275 
Q 750 350 750 650 
L 750 2875 
Q 750 3525 725 3975 
L 1425 3975 
Q 1450 4225 1475 4462 
Q 1500 4700 1525 5100 
z
M 1200 3525 
L 1200 2425 
L 2500 2425 
L 2500 3525 
L 1200 3525 
z
M 1200 1950 
L 1200 775 
L 2500 775 
L 2500 1950 
L 1200 1950 
z
M 5850 3925 
Q 5800 3450 5775 3000 
L 5600 175 
Q 5525 -275 5150 -400 
Q 4775 -525 4350 -550 
Q 4350 -275 4175 25 
Q 4600 0 4850 37 
Q 5100 75 5150 350 
L 5350 3475 
L 4025 3475 
Q 3825 3050 3550 2525 
Q 3350 2675 3125 2775 
Q 3275 3000 3462 3400 
Q 3650 3800 3787 4262 
Q 3925 4725 3975 5025 
Q 4300 4875 4600 4800 
Q 4475 4600 4375 4387 
Q 4275 4175 4200 3925 
L 5850 3925 
z
M 3650 2300 
Q 3825 2400 4075 2550 
Q 4200 2325 4325 2050 
Q 4450 1775 4600 1375 
Q 4400 1300 4150 1150 
Q 4075 1425 3937 1750 
Q 3800 2075 3650 2300 
z
" transform="scale(0.015625)"/>
      <path id="SimHei-7ed3" d="M 1400 5100 
Q 1675 4950 1975 4825 
Q 1775 4575 1562 4175 
Q 1350 3775 1050 3175 
Q 1575 3200 1800 3200 
Q 2025 3600 2150 3975 
Q 2400 3800 2675 3650 
Q 2550 3550 2262 3100 
Q 1975 2650 1325 1625 
Q 2100 1750 2550 1825 
Q 2500 1550 2500 1350 
Q 2275 1325 1725 1250 
Q 1175 1175 675 1025 
Q 575 1275 500 1525 
Q 775 1600 1062 1987 
Q 1350 2375 1575 2800 
Q 1400 2800 1075 2762 
Q 750 2725 525 2650 
Q 450 2900 375 3125 
Q 650 3350 937 3900 
Q 1225 4450 1400 5100 
z
M 375 325 
Q 875 350 1275 412 
Q 1675 475 2600 625 
Q 2525 400 2550 150 
Q 2100 75 1537 -25 
Q 975 -125 575 -250 
Q 475 75 375 325 
z
M 2700 4175 
Q 3000 4150 3450 4150 
L 4025 4150 
Q 4025 4575 4000 5150 
L 4500 5150 
Q 4475 4700 4475 4150 
L 5175 4150 
Q 5625 4150 6000 4175 
L 6000 3725 
Q 5625 3750 5200 3750 
L 4475 3750 
L 4475 2925 
L 5025 2925 
Q 5350 2925 5700 2950 
L 5700 2500 
Q 5400 2525 5000 2525 
L 3625 2525 
Q 3225 2525 2925 2500 
L 2925 2950 
Q 3225 2925 3575 2925 
L 4025 2925 
L 4025 3750 
L 3500 3750 
Q 3075 3750 2700 3725 
L 2700 4175 
z
M 3025 1900 
L 5600 1900 
Q 5575 1575 5575 1175 
L 5575 325 
Q 5575 -150 5600 -500 
L 5125 -500 
L 5125 -25 
L 3500 -25 
L 3500 -550 
L 3025 -550 
Q 3050 100 3050 300 
L 3050 1225 
Q 3050 1525 3025 1900 
z
M 3500 1500 
L 3500 375 
L 5125 375 
L 5125 1500 
L 3500 1500 
z
" transform="scale(0.015625)"/>
      <path id="SimHei-679c" d="M 3450 3450 
L 3450 2750 
L 4850 2750 
L 4850 3450 
L 3450 3450 
z
M 1675 4575 
L 1675 3800 
L 3000 3800 
L 3000 4575 
L 1675 4575 
z
M 3450 450 
Q 3450 -100 3475 -625 
L 2975 -625 
Q 3000 -175 3000 475 
L 3000 1500 
L 2900 1500 
Q 2725 1175 2487 912 
Q 2250 650 1962 425 
Q 1675 200 1350 37 
Q 1025 -125 700 -275 
Q 600 -25 350 225 
Q 725 300 1012 412 
Q 1300 525 1562 675 
Q 1825 825 2037 1037 
Q 2250 1250 2425 1500 
L 1400 1500 
Q 1025 1500 500 1475 
L 500 1875 
Q 1025 1850 1400 1850 
L 3000 1850 
L 3000 2400 
L 1200 2400 
Q 1225 2950 1225 3675 
Q 1225 4400 1200 4925 
L 5325 4925 
Q 5300 4400 5300 3675 
Q 5300 2950 5325 2400 
L 3450 2400 
L 3450 1850 
L 5050 1850 
Q 5550 1850 5925 1875 
L 5925 1475 
Q 5500 1500 5075 1500 
L 4125 1500 
Q 4400 1025 4887 750 
Q 5375 475 5975 375 
Q 5775 100 5675 -150 
Q 4925 100 4437 475 
Q 3950 850 3675 1500 
L 3450 1500 
L 3450 450 
z
M 1675 3450 
L 1675 2750 
L 3000 2750 
L 3000 3450 
L 1675 3450 
z
M 3450 4575 
L 3450 3800 
L 4850 3800 
L 4850 4575 
L 3450 4575 
z
" transform="scale(0.015625)"/>
      <path id="SimHei-5bf9" d="M 3750 3225 
Q 3550 3225 3025 3175 
L 3025 3650 
Q 3525 3625 3725 3625 
L 4775 3625 
L 4775 4350 
Q 4775 4550 4725 5000 
L 5275 5000 
Q 5250 4625 5250 4300 
L 5250 3625 
Q 5500 3625 6050 3650 
L 6050 3200 
Q 5500 3225 5250 3225 
L 5250 175 
Q 5250 -325 4925 -437 
Q 4600 -550 4200 -600 
Q 4150 -300 4000 25 
Q 4500 0 4637 50 
Q 4775 100 4775 375 
L 4775 3225 
L 3750 3225 
z
M 3225 2450 
Q 3475 2575 3775 2650 
Q 4050 2000 4250 1425 
Q 3975 1375 3700 1225 
Q 3525 1850 3225 2450 
z
M 1425 3925 
Q 950 3925 525 3900 
L 525 4350 
Q 950 4325 1400 4325 
L 2800 4325 
Q 2750 3925 2625 3237 
Q 2500 2550 2300 1875 
Q 2450 1675 2662 1362 
Q 2875 1050 3100 725 
Q 2850 575 2625 400 
Q 2225 1125 2025 1375 
Q 1725 850 1412 462 
Q 1100 75 750 -275 
Q 550 -25 300 125 
Q 750 450 1075 812 
Q 1400 1175 1700 1750 
Q 1475 2025 1275 2262 
Q 1075 2500 775 2750 
Q 950 2925 1175 3125 
Q 1725 2525 1950 2275 
Q 2050 2575 2137 2962 
Q 2225 3350 2300 3925 
L 1425 3925 
z
" transform="scale(0.015625)"/>
      <path id="SimHei-6bd4" d="M 1225 4850 
L 1775 4850 
Q 1725 4575 1725 4200 
L 1725 3125 
L 2300 3125 
Q 2750 3125 3075 3150 
L 3075 2650 
Q 2750 2675 2300 2675 
L 1725 2675 
L 1725 325 
Q 2150 575 2412 737 
Q 2675 900 3025 1125 
Q 3050 800 3125 575 
Q 2750 425 2200 62 
Q 1650 -300 1425 -525 
Q 1250 -275 1075 -100 
Q 1200 75 1250 325 
L 1250 4175 
Q 1250 4600 1225 4850 
z
M 3600 4950 
L 4125 4950 
Q 4100 4675 4100 4275 
L 4100 2650 
Q 4825 3000 5450 3625 
Q 5650 3350 5950 3100 
Q 5600 3025 5200 2762 
Q 4800 2500 4100 2175 
L 4100 400 
Q 4100 50 4525 50 
L 5050 50 
Q 5300 50 5387 225 
Q 5475 400 5550 850 
Q 5775 625 6125 550 
Q 5925 0 5800 -187 
Q 5675 -375 5275 -375 
L 4300 -375 
Q 3625 -375 3625 250 
L 3625 4275 
Q 3625 4650 3600 4950 
z
" transform="scale(0.015625)"/>
     </defs>
     <use xlink:href="#SimHei-672c"/>
     <use xlink:href="#SimHei-6b21" x="100"/>
     <use xlink:href="#SimHei-5b9e" x="200"/>
     <use xlink:href="#SimHei-9a8c" x="300"/>
     <use xlink:href="#SimHei-6240" x="400"/>
     <use xlink:href="#SimHei-6709" x="500"/>
     <use xlink:href="#SimHei-6a21" x="600"/>
     <use xlink:href="#SimHei-578b" x="700"/>
     <use xlink:href="#SimHei-7684" x="800"/>
     <use xlink:href="#SimHei-7ed3" x="900"/>
     <use xlink:href="#SimHei-679c" x="1000"/>
     <use xlink:href="#SimHei-5bf9" x="1100"/>
     <use xlink:href="#SimHei-6bd4" x="1200"/>
    </g>
   </g>
   <g id="legend_1">
    <g id="patch_42">
     <path d="M 256.5865 20.768789 
L 622.2735 20.768789 
Q 623.9395 20.768789 623.9395 19.102789 
L 623.9395 8.866 
Q 623.9395 7.2 622.2735 7.2 
L 256.5865 7.2 
Q 254.9205 7.2 254.9205 8.866 
L 254.9205 19.102789 
Q 254.9205 20.768789 256.5865 20.768789 
z
" style="fill: #ffffff; opacity: 0.8; stroke: #cccccc; stroke-linejoin: miter"/>
    </g>
    <g id="patch_43">
     <path d="M 258.2525 16.363 
L 274.9125 16.363 
L 274.9125 10.532 
L 258.2525 10.532 
z
" style="fill: #4155c6"/>
    </g>
    <g id="text_13">
     <!-- dual-GAT-GCN -->
     <g transform="translate(281.5765 16.363) scale(0.0833 -0.0833)">
      <defs>
       <path id="SimHei-64" d="M 2775 100 
L 2275 100 
L 2275 475 
Q 2125 250 1925 150 
Q 1725 50 1450 50 
Q 950 50 600 412 
Q 250 775 250 1500 
Q 250 2225 600 2600 
Q 950 2975 1450 2975 
Q 1725 2975 1925 2862 
Q 2125 2750 2275 2525 
L 2275 4375 
L 2775 4375 
L 2775 100 
z
M 2275 1500 
Q 2275 1975 2062 2250 
Q 1850 2525 1550 2525 
Q 1175 2525 987 2250 
Q 800 1975 800 1500 
Q 800 1025 987 762 
Q 1175 500 1550 500 
Q 1850 500 2062 762 
Q 2275 1025 2275 1500 
z
" transform="scale(0.015625)"/>
       <path id="SimHei-75" d="M 2825 100 
L 2325 100 
L 2325 625 
Q 2125 350 1887 200 
Q 1650 50 1275 50 
Q 825 50 600 300 
Q 375 550 375 925 
L 375 2900 
L 875 2900 
L 875 1100 
Q 875 800 1025 625 
Q 1175 450 1425 450 
Q 1750 450 2037 787 
Q 2325 1125 2325 1625 
L 2325 2900 
L 2825 2900 
L 2825 100 
z
" transform="scale(0.015625)"/>
       <path id="SimHei-61" d="M 2900 100 
L 2300 100 
Q 2250 150 2225 237 
Q 2200 325 2200 450 
Q 2025 250 1775 150 
Q 1525 50 1250 50 
Q 850 50 575 250 
Q 300 450 300 825 
Q 300 1200 550 1425 
Q 800 1650 1325 1725 
Q 1675 1775 1937 1850 
Q 2200 1925 2200 2050 
Q 2200 2200 2087 2350 
Q 1975 2500 1600 2500 
Q 1300 2500 1162 2387 
Q 1025 2275 975 2075 
L 425 2075 
Q 475 2475 787 2712 
Q 1100 2950 1600 2950 
Q 2150 2950 2425 2700 
Q 2700 2450 2700 2000 
L 2700 625 
Q 2700 475 2750 350 
Q 2800 225 2900 100 
z
M 2200 1025 
L 2200 1525 
Q 2050 1475 1912 1437 
Q 1775 1400 1450 1350 
Q 1075 1300 962 1175 
Q 850 1050 850 875 
Q 850 725 962 612 
Q 1075 500 1300 500 
Q 1525 500 1787 625 
Q 2050 750 2200 1025 
z
" transform="scale(0.015625)"/>
       <path id="SimHei-6c" d="M 1850 100 
L 1350 100 
L 1350 4375 
L 1850 4375 
L 1850 100 
z
" transform="scale(0.015625)"/>
       <path id="SimHei-2d" d="M 3000 2100 
L 150 2100 
L 150 2500 
L 3000 2500 
L 3000 2100 
z
" transform="scale(0.015625)"/>
       <path id="SimHei-47" d="M 2875 50 
L 2450 50 
L 2375 400 
Q 2275 250 2062 150 
Q 1850 50 1600 50 
Q 1075 50 662 537 
Q 250 1025 250 2100 
Q 250 3275 625 3850 
Q 1000 4425 1650 4425 
Q 2225 4425 2550 4000 
Q 2875 3575 2875 2900 
L 2325 2900 
Q 2325 3425 2150 3687 
Q 1975 3950 1650 3950 
Q 1250 3950 1050 3537 
Q 850 3125 850 2150 
Q 850 1225 1100 875 
Q 1350 525 1675 525 
Q 2000 525 2187 762 
Q 2375 1000 2375 1500 
L 2375 1775 
L 1600 1775 
L 1600 2250 
L 2875 2250 
L 2875 50 
z
" transform="scale(0.015625)"/>
       <path id="SimHei-4e" d="M 2875 100 
L 2250 100 
L 875 3200 
L 850 3200 
L 850 100 
L 275 100 
L 275 4375 
L 900 4375 
L 2275 1275 
L 2300 1275 
L 2300 4375 
L 2875 4375 
L 2875 100 
z
" transform="scale(0.015625)"/>
      </defs>
      <use xlink:href="#SimHei-64"/>
      <use xlink:href="#SimHei-75" x="50"/>
      <use xlink:href="#SimHei-61" x="100"/>
      <use xlink:href="#SimHei-6c" x="150"/>
      <use xlink:href="#SimHei-2d" x="200"/>
      <use xlink:href="#SimHei-47" x="250"/>
      <use xlink:href="#SimHei-41" x="300"/>
      <use xlink:href="#SimHei-54" x="350"/>
      <use xlink:href="#SimHei-2d" x="400"/>
      <use xlink:href="#SimHei-47" x="450"/>
      <use xlink:href="#SimHei-43" x="500"/>
      <use xlink:href="#SimHei-4e" x="550"/>
     </g>
    </g>
    <g id="patch_44">
     <path d="M 348.2165 16.363 
L 364.8765 16.363 
L 364.8765 10.532 
L 348.2165 10.532 
z
" style="fill: #ff7e79"/>
    </g>
    <g id="text_14">
     <!-- dual-GAT -->
     <g transform="translate(371.5405 16.363) scale(0.0833 -0.0833)">
      <use xlink:href="#SimHei-64"/>
      <use xlink:href="#SimHei-75" x="50"/>
      <use xlink:href="#SimHei-61" x="100"/>
      <use xlink:href="#SimHei-6c" x="150"/>
      <use xlink:href="#SimHei-2d" x="200"/>
      <use xlink:href="#SimHei-47" x="250"/>
      <use xlink:href="#SimHei-41" x="300"/>
      <use xlink:href="#SimHei-54" x="350"/>
     </g>
    </g>
    <g id="patch_45">
     <path d="M 421.5205 16.363 
L 438.1805 16.363 
L 438.1805 10.532 
L 421.5205 10.532 
z
" style="fill: #2ca02c"/>
    </g>
    <g id="text_15">
     <!-- GAT-GCN -->
     <g transform="translate(444.8445 16.363) scale(0.0833 -0.0833)">
      <use xlink:href="#SimHei-47"/>
      <use xlink:href="#SimHei-41" x="50"/>
      <use xlink:href="#SimHei-54" x="100"/>
      <use xlink:href="#SimHei-2d" x="150"/>
      <use xlink:href="#SimHei-47" x="200"/>
      <use xlink:href="#SimHei-43" x="250"/>
      <use xlink:href="#SimHei-4e" x="300"/>
     </g>
    </g>
    <g id="patch_46">
     <path d="M 490.6595 16.363 
L 507.3195 16.363 
L 507.3195 10.532 
L 490.6595 10.532 
z
" style="fill: #ffcc53"/>
    </g>
    <g id="text_16">
     <!-- dual-GCN -->
     <g transform="translate(513.9835 16.363) scale(0.0833 -0.0833)">
      <use xlink:href="#SimHei-64"/>
      <use xlink:href="#SimHei-75" x="50"/>
      <use xlink:href="#SimHei-61" x="100"/>
      <use xlink:href="#SimHei-6c" x="150"/>
      <use xlink:href="#SimHei-2d" x="200"/>
      <use xlink:href="#SimHei-47" x="250"/>
      <use xlink:href="#SimHei-43" x="300"/>
      <use xlink:href="#SimHei-4e" x="350"/>
     </g>
    </g>
    <g id="patch_47">
     <path d="M 563.9635 16.363 
L 580.6235 16.363 
L 580.6235 10.532 
L 563.9635 10.532 
z
" style="fill: #8dc0ff"/>
    </g>
    <g id="text_17">
     <!-- AttenSyn -->
     <g transform="translate(587.2875 16.363) scale(0.0833 -0.0833)">
      <defs>
       <path id="SimHei-74" d="M 2775 175 
Q 2650 125 2487 87 
Q 2325 50 2050 50 
Q 1600 50 1325 300 
Q 1050 550 1050 1000 
L 1050 2500 
L 200 2500 
L 200 2900 
L 1050 2900 
L 1050 3875 
L 1550 3875 
L 1550 2900 
L 2575 2900 
L 2575 2500 
L 1550 2500 
L 1550 975 
Q 1550 775 1650 637 
Q 1750 500 2025 500 
Q 2300 500 2475 550 
Q 2650 600 2775 675 
L 2775 175 
z
" transform="scale(0.015625)"/>
       <path id="SimHei-65" d="M 2875 1050 
Q 2825 600 2475 325 
Q 2125 50 1650 50 
Q 1050 50 662 437 
Q 275 825 275 1500 
Q 275 2175 662 2562 
Q 1050 2950 1650 2950 
Q 2175 2950 2512 2612 
Q 2850 2275 2850 1500 
L 825 1500 
Q 825 950 1062 725 
Q 1300 500 1650 500 
Q 1925 500 2100 637 
Q 2275 775 2325 1050 
L 2875 1050 
z
M 2275 1900 
Q 2225 2250 2050 2387 
Q 1875 2525 1600 2525 
Q 1350 2525 1150 2387 
Q 950 2250 850 1900 
L 2275 1900 
z
" transform="scale(0.015625)"/>
       <path id="SimHei-6e" d="M 2825 100 
L 2325 100 
L 2325 1900 
Q 2325 2200 2175 2375 
Q 2025 2550 1775 2550 
Q 1450 2550 1162 2212 
Q 875 1875 875 1375 
L 875 100 
L 375 100 
L 375 2900 
L 875 2900 
L 875 2375 
Q 1075 2650 1312 2800 
Q 1550 2950 1925 2950 
Q 2375 2950 2600 2700 
Q 2825 2450 2825 2075 
L 2825 100 
z
" transform="scale(0.015625)"/>
       <path id="SimHei-53" d="M 2925 1300 
Q 2925 725 2562 387 
Q 2200 50 1575 50 
Q 950 50 600 400 
Q 250 750 250 1275 
L 250 1450 
L 825 1450 
L 825 1300 
Q 825 925 1050 725 
Q 1275 525 1575 525 
Q 1975 525 2162 737 
Q 2350 950 2350 1250 
Q 2350 1500 2125 1712 
Q 1900 1925 1475 2100 
Q 875 2325 612 2600 
Q 350 2875 350 3250 
Q 350 3775 712 4100 
Q 1075 4425 1575 4425 
Q 2225 4425 2512 4037 
Q 2800 3650 2800 3200 
L 2225 3200 
Q 2250 3475 2075 3700 
Q 1900 3925 1575 3925 
Q 1275 3925 1100 3762 
Q 925 3600 925 3325 
Q 925 3100 1062 2937 
Q 1200 2775 1775 2550 
Q 2325 2325 2625 2012 
Q 2925 1700 2925 1300 
z
" transform="scale(0.015625)"/>
       <path id="SimHei-79" d="M 2925 2900 
L 1775 -125 
Q 1675 -475 1475 -650 
Q 1275 -825 975 -825 
Q 850 -825 737 -812 
Q 625 -800 525 -750 
L 525 -250 
Q 625 -300 725 -325 
Q 825 -350 900 -350 
Q 1100 -350 1175 -287 
Q 1250 -225 1325 0 
L 225 2900 
L 775 2900 
L 1575 700 
L 1600 700 
L 2375 2900 
L 2925 2900 
z
" transform="scale(0.015625)"/>
      </defs>
      <use xlink:href="#SimHei-41"/>
      <use xlink:href="#SimHei-74" x="50"/>
      <use xlink:href="#SimHei-74" x="100"/>
      <use xlink:href="#SimHei-65" x="150"/>
      <use xlink:href="#SimHei-6e" x="200"/>
      <use xlink:href="#SimHei-53" x="250"/>
      <use xlink:href="#SimHei-79" x="300"/>
      <use xlink:href="#SimHei-6e" x="350"/>
     </g>
    </g>
   </g>
  </g>
 </g>
 <defs>
  <clipPath id="p2cf2b70fbe">
   <rect x="29.2" y="55.38935" width="820.46" height="349.029"/>
  </clipPath>
 </defs>
</svg>
